<svg width="24" height="24" viewBox="0 0 24 24" fill="none" xmlns="http://www.w3.org/2000/svg">
<path d="M17 15V17H15V15H17Z" fill="#FFC524"/>
<path fill-rule="evenodd" clip-rule="evenodd" d="M9 11V13H7V11H9ZM13 11V13H11V11H13ZM17 11V13H15V11H17ZM9 15V17H7V15H9ZM13 15V17H11V15H13Z" fill="#FFC524"/>
<path fill-rule="evenodd" clip-rule="evenodd" d="M19 4C19.5304 4 20.0391 4.21069 20.4142 4.58575C20.7893 4.96082 21 5.46954 21 6V20C21 20.5304 20.7893 21.0391 20.4142 21.4142C20.0391 21.7893 19.5304 22 19 22H5C3.89001 22 3 21.1 3 20V6C3 5.46954 3.21075 4.96082 3.58582 4.58575C3.96088 4.21069 4.46954 4 5 4H6V2H8V4H16V2H18V4H19ZM19 9V20H5V9H19Z" fill="white"/>
</svg>
