<svg width="24" height="24" viewBox="0 0 24 24" fill="none" xmlns="http://www.w3.org/2000/svg">
<path d="M11.7293 8C12.7902 8 13.8076 8.42145 14.5578 9.17157C15.3079 9.92169 15.7293 10.9391 15.7293 12C15.7293 13.0609 15.3079 14.0782 14.5578 14.8284C13.8076 15.5785 12.7902 16 11.7293 16C10.6685 16 9.65106 15.5785 8.90091 14.8284C8.15076 14.0782 7.72934 13.0609 7.72934 12C7.72934 10.9391 8.15076 9.92169 8.90091 9.17157C9.65106 8.42145 10.6685 8 11.7293 8ZM11.7293 10C11.1989 10 10.6902 10.2107 10.3151 10.5858C9.94006 10.9608 9.72934 11.4695 9.72934 12C9.72934 12.5305 9.94006 13.0391 10.3151 13.4142C10.6902 13.7892 11.1989 14 11.7293 14C12.2598 14 12.7685 13.7892 13.1436 13.4142C13.5186 13.0391 13.7293 12.5305 13.7293 12C13.7293 11.4695 13.5186 10.9608 13.1436 10.5858C12.7685 10.2107 12.2598 10 11.7293 10ZM9.72934 22C9.47934 22 9.26935 21.8199 9.22934 21.58L8.85934 18.93C8.22934 18.68 7.68933 18.34 7.16934 17.9399L4.67935 18.95C4.45935 19.03 4.18933 18.95 4.06934 18.73L2.06934 15.27C1.93933 15.05 1.99933 14.78 2.18933 14.6299L4.29935 12.97L4.22934 12L4.29935 11L2.18933 9.37C1.99933 9.21997 1.93933 8.94995 2.06934 8.72998L4.06934 5.26996C4.18933 5.04999 4.45935 4.95996 4.67935 5.04999L7.16934 6.04999C7.68933 5.65997 8.22934 5.31995 8.85934 5.06995L9.22934 2.41998C9.26935 2.17999 9.47934 2 9.72934 2H13.7293C13.9793 2 14.1893 2.17999 14.2293 2.41998L14.5993 5.06995C15.2293 5.31995 15.7693 5.65997 16.2893 6.04999L18.7793 5.04999C18.9993 4.95996 19.2693 5.04999 19.3893 5.26996L21.3893 8.72998C21.5193 8.94995 21.4594 9.21997 21.2693 9.37L19.1593 11L19.2293 12L19.1593 13L21.2693 14.6299C21.4594 14.78 21.5193 15.05 21.3893 15.27L19.3893 18.73C19.2693 18.95 18.9993 19.04 18.7793 18.95L16.2893 17.95C15.7693 18.34 15.2293 18.68 14.5993 18.93L14.2293 21.58C14.1893 21.8199 13.9793 22 13.7293 22H9.72934ZM10.9793 4L10.6093 6.60999C9.40933 6.85999 8.34933 7.49994 7.57935 8.38995L5.16934 7.34998L4.41934 8.64996L6.52933 10.2C6.12933 11.3699 6.12933 12.64 6.52933 13.8L4.40933 15.36L5.15933 16.66L7.58932 15.62C8.35931 16.5 9.40933 17.14 10.5993 17.3799L10.9693 20H12.4893L12.8593 17.39C14.0493 17.14 15.0994 16.5 15.8694 15.62L18.2993 16.66L19.0493 15.36L16.9294 13.81C17.3293 12.64 17.3293 11.3699 16.9294 10.2L19.0393 8.64996L18.2893 7.34998L15.8793 8.38995C15.1093 7.49994 14.0493 6.85999 12.8493 6.62L12.4793 4H10.9793Z" fill="#334355"/>
</svg>
