<svg width="24" height="24" viewBox="0 0 24 24" fill="none" xmlns="http://www.w3.org/2000/svg">
<path d="M20.0008 2L16.0008 4V6L13.8308 8.16998L15.8308 10.17L18.0008 8H20.0008L22.0008 4L20.0008 2Z" fill="#FFC524"/>
<path fill-rule="evenodd" clip-rule="evenodd" d="M21.7108 20.29L20.2908 21.71C20.1034 21.8962 19.8499 22.0008 19.5858 22.0008C19.3216 22.0008 19.0681 21.8962 18.8808 21.71L7.00079 9.84998C6.6756 9.94421 6.33931 9.99463 6.00079 10C5.36409 9.99957 4.73669 9.84711 4.17078 9.55536C3.60486 9.26361 3.11676 8.84094 2.74706 8.32257C2.37735 7.8042 2.13673 7.20508 2.0452 6.57501C1.95366 5.94495 2.01387 5.30206 2.22079 4.69995L4.76079 7.23999L7.2408 4.75995L4.70079 2.21997C5.30292 2.01306 5.94576 1.95282 6.57584 2.04437C7.20592 2.13593 7.80505 2.37653 8.32343 2.74622C8.84178 3.11591 9.26442 3.60406 9.55615 4.16998C9.8479 4.7359 10.0004 5.36328 10.0008 6C9.99545 6.3385 9.94501 6.6748 9.8508 7L21.7108 18.8799C21.897 19.0673 22.0016 19.3207 22.0016 19.585C22.0016 19.8492 21.897 20.1026 21.7108 20.29Z" fill="white"/>
<path d="M2.29079 18.8799C2.10454 19.0673 2 19.3207 2 19.585C2 19.8492 2.10454 20.1026 2.29079 20.29L3.71078 21.71C3.89815 21.8962 4.1516 22.0008 4.41579 22.0008C4.67998 22.0008 4.93343 21.8962 5.12079 21.71L10.5908 16.25L7.76079 13.42L2.29079 18.8799Z" fill="#FFC524"/>
</svg>
