<svg width="24" height="24" viewBox="0 0 24 24" fill="none" xmlns="http://www.w3.org/2000/svg">
<path d="M22.248 11.2321L22.2538 14.4737L15.3922 18.8093C14.4857 19.3822 13.4143 19.6853 12.2935 19.6863H12.288C11.1691 19.6863 10.099 19.3846 9.192 18.8144L2.29944 14.4747L2.304 11.2801L22.248 11.2321Z" fill="#FFC524"/>
<path d="M9.62616 22.2046C9.62616 22.5202 9.36 22.776 9.03192 22.776H5.916C5.58768 22.776 5.32176 22.5202 5.32176 22.2046C5.32176 21.8887 5.58768 21.6329 5.916 21.6329H6.6684V17.0607H8.28V21.6329H9.03264C9.36 21.6329 9.62616 21.888 9.62616 22.2046Z" fill="white"/>
<path d="M19.2542 22.2046C19.2542 22.5202 18.9883 22.776 18.66 22.776H15.5441C15.216 22.776 14.9498 22.5202 14.9498 22.2046C14.9498 21.8887 15.216 21.6329 15.5441 21.6329H16.296V17.0607H17.9069V21.6329H18.66C18.9883 21.6329 19.2542 21.888 19.2542 22.2046Z" fill="white"/>
<path d="M12.3005 20.2953C11.1526 20.2953 10.0546 19.986 9.12504 19.4008L2.0532 14.9491V4.63196H22.5228V14.9481L15.4841 19.3958C14.5543 19.9833 13.4551 20.2944 12.3055 20.2953H12.3005ZM4.03416 14.0707L10.2871 18.0067C11.4938 18.766 13.1138 18.7648 14.3191 18.0033L20.5418 14.0716V6.3518H4.03416V14.0707Z" fill="white"/>
<path d="M3.87144 1.19995H20.7046C21.1883 1.19995 21.6523 1.39212 21.9943 1.73419C22.3364 2.07625 22.5286 2.5402 22.5286 3.02395V3.50779H2.04768V3.02395C2.04768 2.54024 2.23982 2.07633 2.58184 1.73427C2.92385 1.39221 3.38773 1.20001 3.87144 1.19995Z" fill="white"/>
<path d="M12.288 16.05C11.8002 16.05 11.3234 15.9054 10.9178 15.6344C10.5122 15.3634 10.1961 14.9782 10.0095 14.5275C9.82281 14.0769 9.77399 13.581 9.86917 13.1026C9.96435 12.6242 10.1993 12.1847 10.5442 11.8398C10.8891 11.4949 11.3286 11.26 11.807 11.1649C12.2854 11.0698 12.7813 11.1187 13.232 11.3054C13.6826 11.4921 14.0678 11.8082 14.3387 12.2138C14.6097 12.6194 14.7543 13.0962 14.7542 13.584C14.7534 14.2378 14.4933 14.8646 14.031 15.3269C13.5686 15.7892 12.9418 16.0493 12.288 16.05ZM12.288 12.3149C12.0371 12.3149 11.7917 12.3893 11.5831 12.5287C11.3744 12.6682 11.2118 12.8663 11.1157 13.0982C11.0197 13.33 10.9945 13.5851 11.0435 13.8313C11.0924 14.0774 11.2133 14.3035 11.3907 14.4809C11.5681 14.6584 11.7942 14.7793 12.0403 14.8283C12.2864 14.8773 12.5416 14.8522 12.7734 14.7562C13.0053 14.6602 13.2035 14.4976 13.3429 14.2889C13.4824 14.0803 13.5568 13.835 13.5569 13.584C13.5566 13.2476 13.4228 12.925 13.1849 12.6871C12.947 12.4491 12.6245 12.3153 12.288 12.3149Z" fill="white"/>
<path d="M12.288 14.1852C12.1326 14.1852 11.9835 14.1235 11.8736 14.0135C11.7637 13.9036 11.7019 13.7546 11.7019 13.5991V11.7163C11.7019 11.5609 11.7637 11.4118 11.8736 11.3019C11.9835 11.192 12.1326 11.1302 12.288 11.1302C12.4434 11.1302 12.5925 11.192 12.7024 11.3019C12.8123 11.4118 12.8741 11.5609 12.8741 11.7163V13.5991C12.8741 13.7546 12.8123 13.9036 12.7024 14.0135C12.5925 14.1235 12.4434 14.1852 12.288 14.1852Z" fill="white"/>
</svg>
